<?xml version="1.0" encoding="UTF-8" standalone="no"?>
<!-- Generator: Adobe Illustrator 19.1.0, SVG Export Plug-In . SVG Version: 6.00 Build 0)  -->

<svg
   xmlns:dc="http://purl.org/dc/elements/1.1/"
   xmlns:cc="http://creativecommons.org/ns#"
   xmlns:rdf="http://www.w3.org/1999/02/22-rdf-syntax-ns#"
   xmlns:svg="http://www.w3.org/2000/svg"
   xmlns="http://www.w3.org/2000/svg"
   xmlns:sodipodi="http://sodipodi.sourceforge.net/DTD/sodipodi-0.dtd"
   xmlns:inkscape="http://www.inkscape.org/namespaces/inkscape"
   version="1.1"
   id="Capa_1"
   x="0px"
   y="0px"
   viewBox="0 0 473.8 473.8"
   style="enable-background:new 0 0 473.8 473.8;"
   xml:space="preserve"
   sodipodi:docname="cameraBorder.svg"
   inkscape:version="0.92.3 (3ce5693, 2018-03-11)"><metadata
   id="metadata49"><rdf:RDF><cc:Work
       rdf:about=""><dc:format>image/svg+xml</dc:format><dc:type
         rdf:resource="http://purl.org/dc/dcmitype/StillImage" /><dc:title></dc:title></cc:Work></rdf:RDF></metadata><defs
   id="defs47" /><sodipodi:namedview
   pagecolor="#ffffff"
   bordercolor="#666666"
   borderopacity="1"
   objecttolerance="10"
   gridtolerance="10"
   guidetolerance="10"
   inkscape:pageopacity="0"
   inkscape:pageshadow="2"
   inkscape:window-width="1301"
   inkscape:window-height="744"
   id="namedview45"
   showgrid="false"
   inkscape:zoom="0.8512369"
   inkscape:cx="240.67551"
   inkscape:cy="323.43009"
   inkscape:window-x="65"
   inkscape:window-y="24"
   inkscape:window-maximized="1"
   inkscape:current-layer="g435" />

<g
   id="g14">
</g>
<g
   id="g16">
</g>
<g
   id="g18">
</g>
<g
   id="g20">
</g>
<g
   id="g22">
</g>
<g
   id="g24">
</g>
<g
   id="g26">
</g>
<g
   id="g28">
</g>
<g
   id="g30">
</g>
<g
   id="g32">
</g>
<g
   id="g34">
</g>
<g
   id="g36">
</g>
<g
   id="g38">
</g>
<g
   id="g40">
</g>
<g
   id="g42">
</g>
<circle
   id="path51"
   cx="238.13162"
   cy="237.76752"
   r="234.06529"
   style="stroke-width:0.77272725" /><circle
   style="fill:#ffffff;stroke-width:0.72528648"
   id="path53"
   cx="237.97836"
   cy="238.29117"
   r="212.64604" /><g
   id="g4215"
   transform="matrix(0.58238822,0,0,0.58238822,84.948957,79.7001)"><g
     id="g4140">
	<g
   id="g4138">
		<path
   id="path4136"
   d="m 1527.0065,24.390181 c -1.885,-18.8389997 -15.491,-34.583 -33.859,-39.176 l -28.277,-7.069 c 1.586,-42.599 -32.897,-78.252001 -75.877,-78.252001 h -179.984 c -42.776,0 -76.685,35.517001 -74.91,78.260001 l -28.246,7.061 c -18.367,4.593 -31.974,20.3350003 -33.853,39.134 -30.601,297.536999 -28.977,281.351999 -28.977,282.509999 v 59.995 c 0,8.283 6.715,14.999 14.999,14.999 h 75.993 v 14.999 c 0,8.283 6.715,14.999 14.999,14.999 h 300.974 c 8.283,0 14.999,-6.715 14.999,-14.999 v -15 h 74.994 c 8.283,0 14.999,-6.715 14.999,-14.999 v -59.995 c -10e-4,-1.518 2.029,19.706 -27.974,-282.466999 z m -129.943,-93.794 c 20.653,3.656 36.64,21.233 37.82,42.029 -7.302,0.353 -14.444,2.499 -20.864,6.351 l -71.523,42.564 z m -34.56,-0.706 -17.998,29.997 h -91.007 l -18,-29.997 z m -35.996,59.995 -27.505,45.841 -27.506,-45.841 z m -125.561,-59.278 54.325,90.542 -70.242,-42.145 c -6.471,-3.883 -13.647,-6.036 -20.979,-6.381 0.968,-20.54 16.157,-38.279 36.896,-42.016 z m -66.931,421.246999 h -60.995 v -29.997 h 60.995 c 0,10.855 0,19.142 0,29.997 z m 330.97,-59.997 V 94.874181 c 0,-8.283 -6.715,-14.999 -14.999,-14.999 -8.284,0 -14.999,6.715 -14.999,14.999 0,11.975999 0,274.166999 0,286.976999 h -270.976 c 0,-11.525 0,-275.258 0,-286.974999 0,-8.283 -6.715,-14.999 -14.999,-14.999 -8.283,0 -14.999,6.715 -14.999,14.999 V 291.85918 h -59.373 l 27.202,-264.483999 c 0.628,-6.28 5.164,-11.528 11.285,-13.059 l 41.169,-10.2919997 c 0.049,-0.012 0.098,-0.024 0.146,-0.037 4.11,-1.028 9.135,-2.871 15.152,0.74 l 84.408,50.6449997 v 69.500999 c 0,8.283 6.715,14.999 14.999,14.999 8.283,0 14.999,-6.715 14.999,-14.999 V 73.370181 c 7.546,4.528 9.889,6.499 14.972,6.506 5.036,0.021 7.381,-1.922 15.026,-6.471 v 51.466999 c 0,8.283 6.715,14.999 14.999,14.999 8.283,0 14.999,-6.715 14.999,-14.999 V 55.553181 l 85.407,-50.8269997 c 5.98,-3.589 10.962,-1.788 15.152,-0.741 0.05,0.013 0.099,0.025 0.148,0.037 l 41.167,10.2919997 c 6.122,1.531 10.658,6.778 11.285,13.048 l 26.262,264.494999 z m 59.997,59.997 h -59.995 c 0,-10.855 0,-19.142 0,-29.997 h 59.995 z"
   inkscape:connector-curvature="0" />
	</g>
</g><g
     id="g4146">
	<g
   id="g4144"
   transform="translate(1034.6645,-136.28645)">
		<path
   id="path4142"
   d="m 359.4,430.277 -29.997,-59.995 c -3.704,-7.408 -12.713,-10.412 -20.122,-6.707 -7.409,3.705 -10.412,12.714 -6.707,20.123 l 29.997,59.995 c 3.704,7.408 12.712,10.412 20.122,6.707 7.409,-3.704 10.412,-12.714 6.707,-20.123 z"
   inkscape:connector-curvature="0" />
	</g>
</g><g
     id="g4152"
     transform="translate(1059.6967,-141.84916)">
	<g
   id="g4150">
		<path
   id="path4148"
   d="m 202.706,363.574 c -7.405,-3.704 -16.418,-0.702 -20.122,6.707 l -29.997,59.995 c -3.705,7.409 -0.702,16.419 6.707,20.123 7.409,3.704 16.419,0.701 20.122,-6.707 l 29.997,-59.995 c 3.705,-7.409 0.702,-16.419 -6.707,-20.123 z"
   inkscape:connector-curvature="0" />
	</g>
</g><g
     id="g4154">
</g><g
     id="g4156">
</g><g
     id="g4158">
</g><g
     id="g4160">
</g><g
     id="g4162">
</g><g
     id="g4164">
</g><g
     id="g4166">
</g><g
     id="g4168">
</g><g
     id="g4170">
</g><g
     id="g4172">
</g><g
     id="g4174">
</g><g
     id="g4176">
</g><g
     id="g4178">
</g><g
     id="g4180">
</g><g
     id="g4182">
</g></g><g
   id="g497"
   transform="matrix(0.59163922,0,0,0.59163922,85.883909,81.99184)"><g
     id="g437">
	<g
   id="g435">
		<path
   id="path427"
   d="m 446.533,119.425 -54.117,-0.283 -51.85,-77.35 c -3.117,-4.817 -8.5,-7.933 -14.167,-7.933 H 186.717 c -5.667,0 -10.767,3.117 -13.883,7.65 l -53.55,77.633 -50.15,0.283 C 31.167,119.425 0,150.592 0,188.558 v 223.55 c 0,37.967 31.167,69.7 69.133,69.7 h 377.4 c 37.967,0 69.133,-31.733 69.133,-69.7 v -223.55 c 10e-4,-37.966 -31.166,-69.133 -69.133,-69.133 z m 35.134,292.683 c 0,19.267 -15.867,35.7 -35.133,35.7 h -377.4 c -19.267,0 -35.133,-16.433 -35.133,-35.7 v -223.55 c 0,-19.267 15.867,-35.133 35.133,-35.133 h 59.217 c 5.667,0 10.767,-3.117 13.883,-7.65 l 53.55,-77.633 h 121.55 l 51.567,77.067 c 3.117,4.533 8.5,7.65 13.883,7.65 l 63.467,0.567 c 19.267,0 35.133,15.867 35.133,35.133 v 223.55 h 0.283 z"
   inkscape:connector-curvature="0" />
		<path
   id="path429"
   d="m 259.25,160.225 c -66.583,0 -120.417,54.117 -120.417,120.417 0,66.3 54.117,120.416 120.417,120.416 66.3,0 120.417,-54.117 120.417,-120.417 0,-66.3 -54.117,-120.416 -120.417,-120.416 z m 0,206.833 c -47.6,0 -86.417,-38.817 -86.417,-86.417 0,-47.6 38.817,-86.417 86.417,-86.417 47.6,0 86.417,38.817 86.417,86.417 0,47.6 -38.817,86.417 -86.417,86.417 z"
   inkscape:connector-curvature="0" />
		<circle
   id="circle431"
   r="6.5170002"
   cy="210.092"
   cx="420.46701"
   style="fill:#ffffff" />
		<path
   id="path433"
   d="m 420.467,186.575 c -13.033,0 -23.517,10.483 -23.517,23.517 0,13.034 10.483,23.517 23.517,23.517 13.034,0 23.517,-10.483 23.517,-23.517 0,-13.034 -10.484,-23.517 -23.517,-23.517 z m 0,34 c -5.95,0 -10.483,-4.817 -10.483,-10.483 0,-5.666 4.817,-10.483 10.483,-10.483 5.667,0 10.483,4.817 10.483,10.483 0,5.666 -4.533,10.483 -10.483,10.483 z"
   inkscape:connector-curvature="0" />
	</g>
</g><g
     id="g439">
</g><g
     id="g441">
</g><g
     id="g443">
</g><g
     id="g445">
</g><g
     id="g447">
</g><g
     id="g449">
</g><g
     id="g451">
</g><g
     id="g453">
</g><g
     id="g455">
</g><g
     id="g457">
</g><g
     id="g459">
</g><g
     id="g461">
</g><g
     id="g463">
</g><g
     id="g465">
</g><g
     id="g467">
</g></g></svg>