<?xml version="1.0" encoding="UTF-8" standalone="no"?>
<!-- Generator: Adobe Illustrator 19.1.0, SVG Export Plug-In . SVG Version: 6.00 Build 0)  -->

<svg
   xmlns:dc="http://purl.org/dc/elements/1.1/"
   xmlns:cc="http://creativecommons.org/ns#"
   xmlns:rdf="http://www.w3.org/1999/02/22-rdf-syntax-ns#"
   xmlns:svg="http://www.w3.org/2000/svg"
   xmlns="http://www.w3.org/2000/svg"
   xmlns:sodipodi="http://sodipodi.sourceforge.net/DTD/sodipodi-0.dtd"
   xmlns:inkscape="http://www.inkscape.org/namespaces/inkscape"
   version="1.1"
   id="Capa_1"
   x="0px"
   y="0px"
   viewBox="0 0 473.8 473.8"
   style="enable-background:new 0 0 473.8 473.8;"
   xml:space="preserve"
   sodipodi:docname="cookies.svg"
   inkscape:version="0.92.3 (3ce5693, 2018-03-11)"><metadata
   id="metadata49"><rdf:RDF><cc:Work
       rdf:about=""><dc:format>image/svg+xml</dc:format><dc:type
         rdf:resource="http://purl.org/dc/dcmitype/StillImage" /><dc:title></dc:title></cc:Work></rdf:RDF></metadata><defs
   id="defs47" /><sodipodi:namedview
   pagecolor="#ffffff"
   bordercolor="#666666"
   borderopacity="1"
   objecttolerance="10"
   gridtolerance="10"
   guidetolerance="10"
   inkscape:pageopacity="0"
   inkscape:pageshadow="2"
   inkscape:window-width="1301"
   inkscape:window-height="744"
   id="namedview45"
   showgrid="false"
   inkscape:zoom="0.25590153"
   inkscape:cx="-453.25013"
   inkscape:cy="755.49158"
   inkscape:window-x="65"
   inkscape:window-y="24"
   inkscape:window-maximized="1"
   inkscape:current-layer="Capa_1" />

<g
   id="g14">
</g>
<g
   id="g16">
</g>
<g
   id="g18">
</g>
<g
   id="g20">
</g>
<g
   id="g22">
</g>
<g
   id="g24">
</g>
<g
   id="g26">
</g>
<g
   id="g28">
</g>
<g
   id="g30">
</g>
<g
   id="g32">
</g>
<g
   id="g34">
</g>
<g
   id="g36">
</g>
<g
   id="g38">
</g>
<g
   id="g40">
</g>
<g
   id="g42">
</g>
<circle
   id="path51"
   cx="238.13162"
   cy="237.76752"
   r="234.06529"
   style="stroke-width:0.77272725" /><circle
   style="fill:#ffffff;stroke-width:0.72528648"
   id="path53"
   cx="237.97836"
   cy="238.29117"
   r="212.64604" /><g
   transform="matrix(0.64192023,0,0,0.64192023,92.071097,94.326607)"
   id="g4407"><g
     id="g4405"><path
       inkscape:connector-curvature="0"
       d="m 240.192,112.076 c -13.255,0 -24,10.745 -24,24 0,13.255 10.745,24 24,24 13.255,0 24,-10.745 24,-24 0,-13.255 -10.745,-24 -24,-24 z m 0,32 c -4.418,0 -8,-3.582 -8,-8 0,-4.418 3.582,-8 8,-8 4.418,0 8,3.582 8,8 0,4.418 -3.582,8 -8,8 z"
       id="path4403" /></g></g><g
   transform="matrix(0.64192023,0,0,0.64192023,92.071097,94.326607)"
   id="g4413"><g
     id="g4411"><path
       inkscape:connector-curvature="0"
       d="m 467.392,140.532 c -1.008,-2.396 -3.117,-4.154 -5.656,-4.712 -2.547,-0.563 -5.208,0.161 -7.12,1.936 -11.983,11.12 -30.712,10.419 -41.831,-1.564 -4.421,-4.765 -7.151,-10.853 -7.768,-17.324 -0.422,-4.398 -4.33,-7.621 -8.728,-7.199 -0.936,0.09 -1.848,0.344 -2.696,0.751 -14.577,7.399 -32.393,1.58 -39.792,-12.998 -6.909,-13.613 -2.333,-30.247 10.568,-38.41 3.682,-2.443 4.686,-7.408 2.243,-11.089 -1.043,-1.572 -2.608,-2.725 -4.419,-3.255 C 277.235,21.819 187.897,68.926 160.409,153.068 81.396,144.014 10.004,200.725 0.95,279.737 c -9.055,79.012 47.657,150.404 126.669,159.458 59.531,6.822 117.064,-23.933 144.461,-77.223 87.239,24.353 177.703,-26.626 202.056,-113.865 9.937,-35.594 7.56,-73.501 -6.744,-107.575 z m -323.2,283.544 c -70.692,0 -128,-57.308 -128,-128 0,-70.692 57.308,-128 128,-128 70.692,0 128,57.308 128,128 -0.084,70.658 -57.342,127.916 -128,128 z m 219.793,-79.945 c -15.387,5.254 -31.534,7.938 -47.793,7.945 -12.67,-0.024 -25.285,-1.672 -37.536,-4.904 28.405,-73.952 -8.519,-156.929 -82.471,-185.334 -6.452,-2.478 -13.075,-4.487 -19.817,-6.01 23.93,-69.55 95.342,-110.935 167.584,-97.12 -14.929,20.315 -10.564,48.886 9.751,63.815 7.841,5.762 17.318,8.868 27.049,8.865 3.502,0.003 6.992,-0.402 10.4,-1.208 7.8,23.946 33.535,37.034 57.481,29.234 2.644,-0.861 5.203,-1.963 7.647,-3.29 26.43,77.403 -14.892,161.577 -92.295,188.007 z"
       id="path4409" /></g></g><g
   transform="matrix(0.64192023,0,0,0.64192023,92.071097,94.326607)"
   id="g4419"><g
     id="g4417"><path
       inkscape:connector-curvature="0"
       d="m 386.12,239.108 c -19.277,-0.018 -34.918,15.595 -34.936,34.872 -0.018,19.277 15.595,34.918 34.872,34.936 19.277,0.018 34.918,-15.595 34.936,-34.872 0,-0.013 0,-0.027 0,-0.04 -0.022,-19.254 -15.618,-34.861 -34.872,-34.896 z m 18.872,34.896 c -0.026,10.412 -8.46,18.846 -18.872,18.872 v 0.032 c -10.44,0.018 -18.918,-8.432 -18.936,-18.872 -0.018,-10.44 8.432,-18.918 18.872,-18.936 10.44,-0.018 18.918,8.432 18.936,18.872 0,0.011 0,0.021 0,0.032 z"
       id="path4415" /></g></g><g
   transform="matrix(0.64192023,0,0,0.64192023,92.071097,94.326607)"
   id="g4425"><g
     id="g4423"><path
       inkscape:connector-curvature="0"
       d="m 353.304,171.46 c -10.719,-10.993 -28.319,-11.215 -39.312,-0.496 -0.167,0.163 -0.333,0.329 -0.496,0.496 l -17.648,17.648 c -10.854,10.856 -10.852,28.455 0.004,39.308 10.856,10.853 28.455,10.852 39.308,-0.004 l 17.648,-17.64 c 10.993,-10.719 11.215,-28.319 0.496,-39.312 z m -11.455,27.647 c -0.115,0.12 -0.233,0.238 -0.353,0.353 v -0.008 l -17.648,17.656 c -4.67,4.456 -12.018,4.456 -16.688,0 -4.591,-4.615 -4.591,-12.073 0,-16.688 l 17.648,-17.64 c 4.509,-4.706 11.978,-4.865 16.684,-0.357 4.705,4.509 4.865,11.979 0.357,16.684 z"
       id="path4421" /></g></g><g
   transform="matrix(0.64192023,0,0,0.64192023,92.071097,94.326607)"
   id="g4431"><g
     id="g4429"><path
       inkscape:connector-curvature="0"
       d="m 95.848,292.42 -16,-16 c -10.858,-10.856 -28.46,-10.854 -39.316,0.004 -10.856,10.858 -10.854,28.46 0.004,39.316 l 16,16 c 10.858,10.856 28.46,10.854 39.316,-0.004 10.856,-10.858 10.854,-28.46 -0.004,-39.316 z m -11.271,27.951 c -0.014,0.014 -0.027,0.027 -0.041,0.041 v 0.008 c -4.61,4.604 -12.078,4.604 -16.688,0 l -16,-16 c -4.509,-4.706 -4.349,-12.175 0.356,-16.684 4.566,-4.375 11.768,-4.373 16.332,0.004 l 16,16 c 4.604,4.581 4.622,12.027 0.041,16.631 z"
       id="path4427" /></g></g><g
   transform="matrix(0.64192023,0,0,0.64192023,92.071097,94.326607)"
   id="g4437"><g
     id="g4435"><path
       inkscape:connector-curvature="0"
       d="m 120.192,360.076 c -13.255,0 -24,10.745 -24,24 0,13.255 10.745,24 24,24 13.255,0 24,-10.745 24,-24 0,-13.255 -10.745,-24 -24,-24 z m 0,32 c -4.418,0 -8,-3.582 -8,-8 0,-4.418 3.582,-8 8,-8 4.418,0 8,3.582 8,8 0,4.418 -3.582,8 -8,8 z"
       id="path4433" /></g></g><g
   transform="matrix(0.64192023,0,0,0.64192023,92.071097,94.326607)"
   id="g4443"><g
     id="g4441"><path
       inkscape:connector-curvature="0"
       d="m 200.192,216.076 c -13.255,0 -24,10.745 -24,24 0,13.255 10.745,24 24,24 13.255,0 24,-10.745 24,-24 0,-13.255 -10.745,-24 -24,-24 z m 0,32 c -4.418,0 -8,-3.582 -8,-8 0,-4.418 3.582,-8 8,-8 4.418,0 8,3.582 8,8 0,4.418 -3.582,8 -8,8 z"
       id="path4439" /></g></g><g
   transform="matrix(0.64192023,0,0,0.64192023,92.071097,94.326607)"
   id="g4449"><g
     id="g4447"><path
       inkscape:connector-curvature="0"
       d="m 437.848,210.42 -16,-16 c -3.178,-3.07 -8.242,-2.982 -11.312,0.196 -2.994,3.1 -2.994,8.015 0,11.116 l 16,16 c 3.178,3.069 8.242,2.982 11.312,-0.196 2.994,-3.101 2.994,-8.016 0,-11.116 z"
       id="path4445" /></g></g><g
   transform="matrix(0.64192023,0,0,0.64192023,92.071097,94.326607)"
   id="g4455"><g
     id="g4453"><path
       inkscape:connector-curvature="0"
       d="m 325.652,306.42 c -3.1,-2.995 -8.016,-2.995 -11.116,0 l -16,16 c -3.178,3.07 -3.266,8.134 -0.196,11.312 3.07,3.178 8.134,3.266 11.312,0.196 0.066,-0.064 0.132,-0.13 0.196,-0.196 l 16,-16 c 3.07,-3.178 2.982,-8.242 -0.196,-11.312 z"
       id="path4451" /></g></g><g
   transform="matrix(0.64192023,0,0,0.64192023,92.071097,94.326607)"
   id="g4461"><g
     id="g4459"><path
       inkscape:connector-curvature="0"
       d="m 157.652,274.42 c -3.1,-2.994 -8.015,-2.994 -11.116,0 l -16,16 c -3.178,3.069 -3.266,8.134 -0.196,11.312 3.069,3.178 8.134,3.266 11.312,0.196 0.067,-0.064 0.132,-0.13 0.196,-0.196 l 16,-16 c 3.069,-3.178 2.981,-8.242 -0.196,-11.312 z"
       id="path4457" /></g></g><g
   transform="matrix(0.64192023,0,0,0.64192023,92.071097,94.326607)"
   id="g4467"><g
     id="g4465"><path
       inkscape:connector-curvature="0"
       d="m 253.848,298.42 -16,-16 c -3.178,-3.07 -8.242,-2.982 -11.312,0.196 -2.994,3.1 -2.994,8.015 0,11.116 l 16,16 c 3.178,3.07 8.242,2.982 11.312,-0.196 2.995,-3.1 2.995,-8.016 0,-11.116 z"
       id="path4463" /></g></g><g
   transform="matrix(0.64192023,0,0,0.64192023,92.071097,94.326607)"
   id="g4473"><g
     id="g4471"><path
       inkscape:connector-curvature="0"
       d="m 318.848,123.636 -16,-24 c -2.452,-3.676 -7.42,-4.668 -11.096,-2.216 -3.676,2.452 -4.668,7.42 -2.216,11.096 l 16,24 c 2.452,3.676 7.42,4.668 11.096,2.216 3.676,-2.452 4.668,-7.42 2.216,-11.096 z"
       id="path4469" /></g></g><g
   transform="matrix(0.64192023,0,0,0.64192023,92.071097,94.326607)"
   id="g4479"><g
     id="g4477"><path
       inkscape:connector-curvature="0"
       d="m 221.848,362.42 -40,-40 c -3.125,-3.124 -8.19,-3.123 -11.314,0.002 -1.499,1.5 -2.342,3.534 -2.342,5.654 v 40 c 0,4.418 3.582,8 8,8 h 40 c 4.418,-0.001 7.999,-3.583 7.998,-8.002 0,-2.12 -0.843,-4.154 -2.342,-5.654 z m -37.656,-2.344 v -12.688 l 12.688,12.688 z"
       id="path4475" /></g></g><g
   transform="matrix(0.64192023,0,0,0.64192023,-2068.9164,-1089.7226)"
   id="g4485"><g
     id="g4483"
     transform="translate(3366.4424,1844.5426)"><path
       inkscape:connector-curvature="0"
       d="m 133.846,202.418 c -1.5,-1.499 -3.534,-2.342 -5.654,-2.342 h -40 c -4.418,0 -8,3.582 -8,8 v 40 c -10e-4,3.235 1.947,6.153 4.936,7.392 2.99,1.239 6.432,0.553 8.72,-1.736 l 40,-40 c 3.124,-3.125 3.123,-8.19 -0.002,-11.314 z m -37.654,26.346 v -12.688 h 12.688 z"
       id="path4481" /></g></g></svg>