<?xml version="1.0" encoding="UTF-8" standalone="no"?>
<!-- Generator: Adobe Illustrator 19.1.0, SVG Export Plug-In . SVG Version: 6.00 Build 0)  -->

<svg
   xmlns:dc="http://purl.org/dc/elements/1.1/"
   xmlns:cc="http://creativecommons.org/ns#"
   xmlns:rdf="http://www.w3.org/1999/02/22-rdf-syntax-ns#"
   xmlns:svg="http://www.w3.org/2000/svg"
   xmlns="http://www.w3.org/2000/svg"
   xmlns:sodipodi="http://sodipodi.sourceforge.net/DTD/sodipodi-0.dtd"
   xmlns:inkscape="http://www.inkscape.org/namespaces/inkscape"
   version="1.1"
   id="Capa_1"
   x="0px"
   y="0px"
   viewBox="0 0 473.8 473.8"
   style="enable-background:new 0 0 473.8 473.8;"
   xml:space="preserve"
   sodipodi:docname="devoluciones.svg"
   inkscape:version="0.92.3 (3ce5693, 2018-03-11)"><metadata
   id="metadata49"><rdf:RDF><cc:Work
       rdf:about=""><dc:format>image/svg+xml</dc:format><dc:type
         rdf:resource="http://purl.org/dc/dcmitype/StillImage" /><dc:title></dc:title></cc:Work></rdf:RDF></metadata><defs
   id="defs47" /><sodipodi:namedview
   pagecolor="#ffffff"
   bordercolor="#666666"
   borderopacity="1"
   objecttolerance="10"
   gridtolerance="10"
   guidetolerance="10"
   inkscape:pageopacity="0"
   inkscape:pageshadow="2"
   inkscape:window-width="1301"
   inkscape:window-height="744"
   id="namedview45"
   showgrid="false"
   inkscape:zoom="0.25590153"
   inkscape:cx="-922.18051"
   inkscape:cy="1068.1118"
   inkscape:window-x="65"
   inkscape:window-y="24"
   inkscape:window-maximized="1"
   inkscape:current-layer="Capa_1" />

<g
   id="g14">
</g>
<g
   id="g16">
</g>
<g
   id="g18">
</g>
<g
   id="g20">
</g>
<g
   id="g22">
</g>
<g
   id="g24">
</g>
<g
   id="g26">
</g>
<g
   id="g28">
</g>
<g
   id="g30">
</g>
<g
   id="g32">
</g>
<g
   id="g34">
</g>
<g
   id="g36">
</g>
<g
   id="g38">
</g>
<g
   id="g40">
</g>
<g
   id="g42">
</g>
<circle
   id="path51"
   cx="238.13162"
   cy="237.76752"
   r="234.06529"
   style="stroke-width:0.77272725" /><circle
   style="fill:#ffffff;stroke-width:0.72528648"
   id="path53"
   cx="237.97836"
   cy="238.29117"
   r="212.64604" /><g
   transform="matrix(0.60266446,0,0,0.60266446,87.999625,77.354104)"
   id="g4833"><g
     id="g4831"><path
       inkscape:connector-curvature="0"
       d="m 504.901,297.474 c -7.174,-10.024 -19.126,-16.76 -31.189,-17.58 -9.847,-0.663 -18.77,2.662 -25.118,9.382 -1.393,1.474 -2.896,3.093 -4.486,4.827 -7.023,-6.434 -16.226,-10.574 -25.504,-11.204 -9.851,-0.66 -18.771,2.663 -25.118,9.382 -13.817,14.626 -38.283,43.198 -57.497,65.944 -2.506,-1.482 -5.187,-2.704 -8.023,-3.621 -9.184,-3.955 -135.787,-58.024 -191.905,-58.024 -90.651,0 -132.297,48.725 -134.025,50.798 -2.651,3.182 -2.221,7.901 0.952,10.561 3.174,2.661 7.91,2.244 10.58,-0.922 0.096,-0.113 9.825,-11.505 29.697,-22.73 18.316,-10.344 49.284,-22.678 92.795,-22.678 53.914,0 184.973,56.372 186.291,56.941 2.409,1.039 4.894,1.834 7.094,3.302 2.077,1.386 3.936,3.097 5.494,5.048 3.026,3.791 4.921,8.481 5.319,13.319 0.837,10.136 -4.852,19.929 -14.035,24.258 -5.791,2.73 -11.913,2.812 -17.997,1.145 L 226.23,393.039 c -3.948,-1.088 -8.154,1.303 -9.241,5.249 -1.087,3.948 1.302,8.153 5.249,9.24 l 81.882,22.552 c 9.949,3.069 20.821,2.065 30.039,-2.769 9.363,-4.909 16.254,-13.172 19.402,-23.263 1.028,-3.292 1.608,-6.651 1.765,-10.008 l 21.992,-2.316 c 1.946,-0.205 3.736,-1.161 4.989,-2.665 0.542,-0.651 54.467,-65.388 77.213,-89.464 9.454,-10.012 26.334,-2.915 33.161,6.623 10.498,14.667 -2.548,30.678 -6.796,35.237 -20.876,22.398 -59.157,68.545 -66.038,76.863 l -155.803,77.901 -80.161,-33.752 c -3.774,-1.589 -8.253,0.234 -9.842,4.01 -1.589,3.774 0.235,8.252 4.009,9.841 l 83.348,35.093 c 2.004,0.845 4.333,0.768 6.277,-0.204 L 427.99,431.049 c 0.938,-0.469 1.767,-1.129 2.435,-1.939 0.44,-0.533 44.259,-53.593 66.456,-77.41 16.338,-17.527 19.414,-38.309 8.02,-54.226 z m -132.188,79.625 -19.581,2.062 c -1.388,-3.93 -3.39,-7.623 -5.914,-10.938 16.367,-19.374 42.963,-50.556 57.192,-65.618 4.111,-4.353 9.431,-4.969 13.173,-4.708 5.891,0.401 11.932,3.18 16.475,7.383 -22.546,25.452 -53.241,62.112 -61.345,71.819 z"
       id="path4829" /></g></g><g
   transform="matrix(0.60266446,0,0,0.60266446,87.999625,77.354104)"
   id="g4839"><g
     id="g4837"><path
       inkscape:connector-curvature="0"
       d="m 146.989,446.938 -32.061,-13.5 c -0.923,-0.389 -1.915,-0.589 -2.917,-0.589 H 7.806 c -4.15,0 -7.515,3.364 -7.515,7.515 0,4.151 3.365,7.515 7.515,7.515 h 102.687 l 30.662,12.91 c 4.034,1.699 8.762,-0.509 10.083,-4.667 1.16,-3.65 -0.723,-7.7 -4.249,-9.184 z"
       id="path4835" /></g></g><g
   transform="matrix(0.60266446,0,0,0.60266446,87.999625,77.354104)"
   id="g4845"><g
     id="g4843"><path
       inkscape:connector-curvature="0"
       d="m 399.517,250.567 -31.999,4.572 C 393.539,227.26 408.094,190.737 408.094,151.798 408.094,68.097 339.997,0 256.296,0 172.594,0 104.498,68.097 104.498,151.798 c 0,33.585 10.746,65.412 31.076,92.038 19.676,25.77 47.577,44.886 78.565,53.827 4.099,1.181 8.451,-1.397 9.407,-5.545 0.885,-3.835 -1.465,-7.805 -5.241,-8.896 -58.159,-16.78 -98.778,-70.825 -98.778,-131.425 0,-75.415 61.355,-136.769 136.769,-136.769 75.415,0 136.769,61.354 136.769,136.769 0,37.281 -14.8,72.111 -41.081,97.745 v -39.631 c 0,-4.151 -3.364,-7.515 -7.515,-7.515 -4.151,0 -7.515,3.364 -7.515,7.515 v 56.11 c 0,4.493 4.126,8.079 8.578,7.44 l 56.11,-8.016 c 4.054,-0.579 6.957,-4.448 6.377,-8.502 -0.579,-4.05 -4.453,-6.949 -8.502,-6.376 z"
       id="path4841" /></g></g><g
   transform="matrix(0.60266446,0,0,0.60266446,87.999625,77.354104)"
   id="g4851"><g
     id="g4849"><path
       inkscape:connector-curvature="0"
       d="m 256.296,144.282 h -8.016 c -9.116,0 -16.532,-7.417 -16.532,-16.532 0,-9.116 7.417,-16.533 16.532,-16.533 h 32.063 c 4.151,0 7.515,-3.364 7.515,-7.515 0,-4.151 -3.364,-7.515 -7.515,-7.515 H 263.81 V 87.67 c 0,-4.151 -3.364,-7.515 -7.515,-7.515 -4.15,0 -7.515,3.364 -7.515,7.515 v 8.517 h -0.501 c -17.403,0 -31.562,14.159 -31.562,31.562 0,17.403 14.159,31.562 31.562,31.562 h 8.016 c 9.116,0 16.533,7.417 16.533,16.532 0,9.115 -7.417,16.532 -16.533,16.532 h -32.063 c -4.15,0 -7.515,3.364 -7.515,7.515 0,4.151 3.365,7.515 7.515,7.515 h 24.548 v 8.517 c 0,4.151 3.365,7.515 7.515,7.515 4.151,0 7.515,-3.364 7.515,-7.515 v -9.427 c 13.786,-3.381 24.047,-15.837 24.047,-30.651 10e-4,-17.403 -14.158,-31.562 -31.561,-31.562 z"
       id="path4847" /></g></g></svg>