<?xml version="1.0" encoding="UTF-8" standalone="no"?>
<!-- Generator: Adobe Illustrator 19.1.0, SVG Export Plug-In . SVG Version: 6.00 Build 0)  -->

<svg
   xmlns:dc="http://purl.org/dc/elements/1.1/"
   xmlns:cc="http://creativecommons.org/ns#"
   xmlns:rdf="http://www.w3.org/1999/02/22-rdf-syntax-ns#"
   xmlns:svg="http://www.w3.org/2000/svg"
   xmlns="http://www.w3.org/2000/svg"
   xmlns:sodipodi="http://sodipodi.sourceforge.net/DTD/sodipodi-0.dtd"
   xmlns:inkscape="http://www.inkscape.org/namespaces/inkscape"
   version="1.1"
   id="Capa_1"
   x="0px"
   y="0px"
   viewBox="0 0 473.8 473.8"
   style="enable-background:new 0 0 473.8 473.8;"
   xml:space="preserve"
   sodipodi:docname="legal.svg"
   inkscape:version="0.92.3 (3ce5693, 2018-03-11)"><metadata
   id="metadata49"><rdf:RDF><cc:Work
       rdf:about=""><dc:format>image/svg+xml</dc:format><dc:type
         rdf:resource="http://purl.org/dc/dcmitype/StillImage" /><dc:title></dc:title></cc:Work></rdf:RDF></metadata><defs
   id="defs47" /><sodipodi:namedview
   pagecolor="#ffffff"
   bordercolor="#666666"
   borderopacity="1"
   objecttolerance="10"
   gridtolerance="10"
   guidetolerance="10"
   inkscape:pageopacity="0"
   inkscape:pageshadow="2"
   inkscape:window-width="1301"
   inkscape:window-height="744"
   id="namedview45"
   showgrid="false"
   inkscape:zoom="0.25590153"
   inkscape:cx="171.99037"
   inkscape:cy="599.18145"
   inkscape:window-x="65"
   inkscape:window-y="24"
   inkscape:window-maximized="1"
   inkscape:current-layer="Capa_1" />

<g
   id="g14">
</g>
<g
   id="g16">
</g>
<g
   id="g18">
</g>
<g
   id="g20">
</g>
<g
   id="g22">
</g>
<g
   id="g24">
</g>
<g
   id="g26">
</g>
<g
   id="g28">
</g>
<g
   id="g30">
</g>
<g
   id="g32">
</g>
<g
   id="g34">
</g>
<g
   id="g36">
</g>
<g
   id="g38">
</g>
<g
   id="g40">
</g>
<g
   id="g42">
</g>
<circle
   id="path51"
   cx="238.13162"
   cy="237.76752"
   r="234.06529"
   style="stroke-width:0.77272725" /><circle
   style="fill:#ffffff;stroke-width:0.72528648"
   id="path53"
   cx="237.97836"
   cy="238.29117"
   r="212.64604" /><g
   transform="matrix(0.58785373,0,0,0.58785373,91.790212,73.213088)"
   id="g268"><g
     id="g266"><path
       inkscape:connector-curvature="0"
       d="m 117.776,174.345 c -3.9,-3.9 -10.24,-3.9 -14.139,0 -3.91,3.91 -3.91,10.24 0,14.14 3.9,3.91 10.24,3.91 14.139,0 3.909,-3.9 3.909,-10.23 0,-14.14 z"
       id="path264" /></g></g><g
   transform="matrix(0.58785373,0,0,0.58785373,91.790212,73.213088)"
   id="g274"><g
     id="g272"><path
       inkscape:connector-curvature="0"
       d="m 253.199,447.718 c 4.409,-5.972 6.792,-13.167 6.792,-20.732 0,-19.298 -15.7,-34.999 -34.999,-34.999 H 54.998 c -9.353,0 -18.142,3.64 -24.749,10.249 -6.61,6.608 -10.25,15.397 -10.25,24.75 0,7.749 2.536,14.915 6.815,20.72 C 10.891,456.078 0,472.778 0,491.983 v 10 c 0,5.523 4.478,10 10,10 h 259.99 c 5.522,0 10,-4.477 10,-10 v -10 c 0,-19.196 -10.88,-35.889 -26.791,-44.265 z M 44.39,416.376 c 2.831,-2.832 6.599,-4.391 10.608,-4.391 h 169.994 c 8.271,0 14.999,6.729 14.999,14.999 0,4.01 -1.56,7.777 -4.392,10.609 -2.831,2.832 -6.599,4.391 -10.608,4.391 H 54.998 c -8.271,0 -14.999,-6.729 -14.999,-14.999 0,-4.009 1.559,-7.777 4.391,-10.609 z m -24.391,75.607 c 0,-16.541 13.458,-29.999 29.999,-29.999 h 5 169.994 5 c 16.541,0 29.999,13.458 29.999,29.999 z"
       id="path270" /></g></g><g
   transform="matrix(0.58785373,0,0,0.58785373,91.790212,73.213088)"
   id="g280"><g
     id="g278"><path
       inkscape:connector-curvature="0"
       d="m 502.693,420.124 c -3.396,-5.263 -7.448,-9.917 -12.045,-13.833 l -46.725,-40.753 c -0.364,-0.548 -0.786,-1.068 -1.269,-1.551 -0.812,-0.811 -1.732,-1.444 -2.71,-1.918 L 411.687,337.424 280.897,223.333 c 5.354,-5.597 8.302,-12.916 8.302,-20.699 0,-8.018 -3.121,-15.553 -8.794,-21.225 -2.474,-2.471 -5.286,-4.414 -8.291,-5.837 l 12.1,-12.1 c 3.382,0.899 6.857,1.359 10.335,1.359 10.241,-10e-4 20.483,-3.899 28.279,-11.695 7.558,-7.557 11.72,-17.602 11.72,-28.285 0,-10.683 -4.162,-20.728 -11.719,-28.285 L 237.981,11.72 C 230.424,4.163 220.378,0.001 209.692,0.001 c -10.681,0 -20.724,4.162 -28.28,11.719 -10.444,10.444 -13.882,25.273 -10.336,38.615 L 50.351,171.059 c -3.336,-0.887 -6.807,-1.355 -10.353,-1.355 -10.688,0 -20.729,4.159 -28.28,11.709 -15.596,15.596 -15.596,40.973 0,56.57 l 84.847,84.848 c 7.799,7.798 18.042,11.697 28.285,11.697 10.244,0 20.487,-3.899 28.286,-11.697 10.444,-10.445 13.882,-25.273 10.336,-38.615 l 12.075,-12.076 c 1.451,3.03 3.42,5.826 5.866,8.271 5.666,5.666 13.199,8.787 21.215,8.787 7.775,0 15.091,-2.943 20.696,-8.291 L 362.63,440.961 c 0.384,0.6 0.832,1.171 1.356,1.695 0.179,0.179 0.369,0.342 0.558,0.504 l 41.511,47.694 c 1.032,1.218 2.135,2.416 3.28,3.561 11.401,11.397 26.46,17.582 42.27,17.582 2.787,0 5.6,-0.192 8.417,-0.582 18.829,-2.606 35.102,-13.87 44.644,-30.908 10.453,-18.673 9.675,-42.38 -1.973,-60.383 z M 195.555,25.862 c 3.779,-3.779 8.801,-5.861 14.138,-5.861 5.344,0 10.369,2.082 14.147,5.861 l 84.848,84.847 c 3.779,3.779 5.86,8.802 5.86,14.143 0,5.341 -2.081,10.364 -5.861,14.143 -7.795,7.797 -20.481,7.797 -28.276,0 L 195.56,54.144 c -0.002,-0.002 -0.003,-0.003 -0.005,-0.005 -7.797,-7.796 -7.797,-20.481 0,-28.277 z m -56.561,282.827 c -7.798,7.798 -20.489,7.799 -28.287,0 L 25.86,223.842 c -7.799,-7.799 -7.799,-20.487 0,-28.287 3.772,-3.773 8.794,-5.851 14.138,-5.851 5.343,0 10.362,2.077 14.133,5.847 l 84.862,84.862 c 7.798,7.795 7.798,20.481 0.001,28.276 z m 42.102,-70.38 -27.961,27.962 -84.856,-84.856 113.133,-113.135 84.855,84.856 -28.012,28.013 c -0.091,0.086 -0.18,0.17 -0.276,0.265 l -56.538,56.539 c -0.117,0.115 -0.23,0.235 -0.345,0.356 z m 35.706,20.861 c -0.02,0.02 -0.039,0.039 -0.059,0.059 l -7.042,7.042 c -1.889,1.888 -4.4,2.928 -7.074,2.928 -2.673,0 -5.185,-1.04 -7.073,-2.929 -1.891,-1.89 -2.932,-4.404 -2.932,-7.079 0,-2.618 0.999,-5.081 2.812,-6.939 l 56.801,-56.801 c 3.893,-3.786 10.187,-3.739 14.034,0.104 1.89,1.89 2.931,4.404 2.931,7.079 0,2.673 -1.038,5.18 -2.932,7.069 l -7.001,7.001 c -0.048,0.047 -0.096,0.095 -0.143,0.143 z m 20.708,7.575 29.226,-29.226 123.742,107.935 -45.154,45.155 z m 120.975,138.986 47.099,-47.1 15.107,13.177 -49.045,49.046 z m 128.732,65.006 c -6.454,11.523 -17.365,19.128 -29.936,20.868 -12.542,1.736 -24.865,-2.395 -33.807,-11.333 -0.769,-0.768 -1.505,-1.569 -2.191,-2.381 -0.032,-0.038 -0.064,-0.076 -0.097,-0.113 l -36.38,-41.802 50.991,-50.992 41.75,36.417 c 0.031,0.028 0.063,0.055 0.096,0.083 3.125,2.657 5.898,5.848 8.251,9.494 7.562,11.685 8.092,27.665 1.323,39.759 z"
       id="path276" /></g></g><g
   transform="matrix(0.58785373,0,0,0.58785373,91.790212,73.213088)"
   id="g286"><g
     id="g284"><path
       inkscape:connector-curvature="0"
       d="m 188.484,103.636 c -3.906,-3.905 -10.236,-3.905 -14.142,0 l -42.428,42.428 c -3.905,3.905 -3.905,10.237 0,14.141 1.953,1.953 4.512,2.929 7.071,2.929 2.559,0 5.118,-0.977 7.071,-2.929 l 42.428,-42.428 c 3.905,-3.904 3.905,-10.235 0,-14.141 z"
       id="path282" /></g></g></svg>