<?xml version="1.0" encoding="UTF-8" standalone="no"?>
<!-- Generator: Adobe Illustrator 19.1.0, SVG Export Plug-In . SVG Version: 6.00 Build 0)  -->

<svg
   xmlns:dc="http://purl.org/dc/elements/1.1/"
   xmlns:cc="http://creativecommons.org/ns#"
   xmlns:rdf="http://www.w3.org/1999/02/22-rdf-syntax-ns#"
   xmlns:svg="http://www.w3.org/2000/svg"
   xmlns="http://www.w3.org/2000/svg"
   xmlns:sodipodi="http://sodipodi.sourceforge.net/DTD/sodipodi-0.dtd"
   xmlns:inkscape="http://www.inkscape.org/namespaces/inkscape"
   version="1.1"
   id="Capa_1"
   x="0px"
   y="0px"
   viewBox="0 0 473.8 473.8"
   style="enable-background:new 0 0 473.8 473.8;"
   xml:space="preserve"
   sodipodi:docname="packageIcon.svg"
   inkscape:version="0.92.3 (3ce5693, 2018-03-11)"><metadata
   id="metadata49"><rdf:RDF><cc:Work
       rdf:about=""><dc:format>image/svg+xml</dc:format><dc:type
         rdf:resource="http://purl.org/dc/dcmitype/StillImage" /><dc:title></dc:title></cc:Work></rdf:RDF></metadata><defs
   id="defs47" /><sodipodi:namedview
   pagecolor="#ffffff"
   bordercolor="#666666"
   borderopacity="1"
   objecttolerance="10"
   gridtolerance="10"
   guidetolerance="10"
   inkscape:pageopacity="0"
   inkscape:pageshadow="2"
   inkscape:window-width="1301"
   inkscape:window-height="744"
   id="namedview45"
   showgrid="false"
   inkscape:zoom="0.61734911"
   inkscape:cx="236.89999"
   inkscape:cy="236.89999"
   inkscape:window-x="65"
   inkscape:window-y="24"
   inkscape:window-maximized="1"
   inkscape:current-layer="Capa_1" />

<g
   id="g14">
</g>
<g
   id="g16">
</g>
<g
   id="g18">
</g>
<g
   id="g20">
</g>
<g
   id="g22">
</g>
<g
   id="g24">
</g>
<g
   id="g26">
</g>
<g
   id="g28">
</g>
<g
   id="g30">
</g>
<g
   id="g32">
</g>
<g
   id="g34">
</g>
<g
   id="g36">
</g>
<g
   id="g38">
</g>
<g
   id="g40">
</g>
<g
   id="g42">
</g>
<circle
   id="path51"
   cx="238.13162"
   cy="237.76752"
   r="234.06529"
   style="stroke-width:0.77272725" /><circle
   style="fill:#ffffff;stroke-width:0.72528648"
   id="path53"
   cx="237.97836"
   cy="238.29117"
   r="212.64604" /><g
   id="g12"
   transform="matrix(0.67617625,0,0,0.67617625,80.69724,76.14138)">
	<path
   d="m 454.8,111.7 c 0,-1.8 -0.4,-3.6 -1.2,-5.3 -1.6,-3.4 -4.7,-5.7 -8.1,-6.4 L 241.8,1.2 c -3.3,-1.6 -7.2,-1.6 -10.5,0 L 25.6,100.9 c -4,1.9 -6.6,5.9 -6.8,10.4 v 0.1 c 0,0.1 0,0.2 0,0.4 V 362 c 0,4.6 2.6,8.8 6.8,10.8 l 205.7,99.7 c 0.1,0 0.1,0 0.2,0.1 0.3,0.1 0.6,0.2 0.9,0.4 0.1,0 0.2,0.1 0.4,0.1 0.3,0.1 0.6,0.2 0.9,0.3 0.1,0 0.2,0.1 0.3,0.1 0.3,0.1 0.7,0.1 1,0.2 0.1,0 0.2,0 0.3,0 0.4,0 0.9,0.1 1.3,0.1 0.4,0 0.9,0 1.3,-0.1 0.1,0 0.2,0 0.3,0 0.3,0 0.7,-0.1 1,-0.2 0.1,0 0.2,-0.1 0.3,-0.1 0.3,-0.1 0.6,-0.2 0.9,-0.3 0.1,0 0.2,-0.1 0.4,-0.1 0.3,-0.1 0.6,-0.2 0.9,-0.4 0.1,0 0.1,0 0.2,-0.1 l 206.3,-100 c 4.1,-2 6.8,-6.2 6.8,-10.8 V 112 c -0.2,-0.1 -0.2,-0.2 -0.2,-0.3 z M 236.5,25.3 414.9,111.8 349.2,143.7 170.8,57.2 Z m 0,173 L 58.1,111.8 143.3,70.5 321.7,157 Z M 42.8,131.1 224.5,219.2 V 442.5 L 42.8,354.4 Z M 248.5,442.5 V 219.2 l 85.3,-41.4 v 58.4 c 0,6.6 5.4,12 12,12 6.6,0 12,-5.4 12,-12 v -70.1 l 73,-35.4 V 354 Z"
   id="path10"
   inkscape:connector-curvature="0" />
</g></svg>