<?xml version="1.0" encoding="UTF-8" standalone="no"?>
<!-- Generator: Adobe Illustrator 19.1.0, SVG Export Plug-In . SVG Version: 6.00 Build 0)  -->

<svg
   xmlns:dc="http://purl.org/dc/elements/1.1/"
   xmlns:cc="http://creativecommons.org/ns#"
   xmlns:rdf="http://www.w3.org/1999/02/22-rdf-syntax-ns#"
   xmlns:svg="http://www.w3.org/2000/svg"
   xmlns="http://www.w3.org/2000/svg"
   xmlns:sodipodi="http://sodipodi.sourceforge.net/DTD/sodipodi-0.dtd"
   xmlns:inkscape="http://www.inkscape.org/namespaces/inkscape"
   version="1.1"
   id="Capa_1"
   x="0px"
   y="0px"
   viewBox="0 0 473.8 473.8"
   style="enable-background:new 0 0 473.8 473.8;"
   xml:space="preserve"
   sodipodi:docname="sudaderaIcon.svg"
   inkscape:version="0.92.3 (3ce5693, 2018-03-11)"><metadata
   id="metadata49"><rdf:RDF><cc:Work
       rdf:about=""><dc:format>image/svg+xml</dc:format><dc:type
         rdf:resource="http://purl.org/dc/dcmitype/StillImage" /><dc:title></dc:title></cc:Work></rdf:RDF></metadata><defs
   id="defs47" /><sodipodi:namedview
   pagecolor="#ffffff"
   bordercolor="#666666"
   borderopacity="1"
   objecttolerance="10"
   gridtolerance="10"
   guidetolerance="10"
   inkscape:pageopacity="0"
   inkscape:pageshadow="2"
   inkscape:window-width="1301"
   inkscape:window-height="744"
   id="namedview45"
   showgrid="false"
   inkscape:zoom="0.61734911"
   inkscape:cx="236.89999"
   inkscape:cy="236.89999"
   inkscape:window-x="65"
   inkscape:window-y="24"
   inkscape:window-maximized="1"
   inkscape:current-layer="Capa_1" />

<g
   id="g14">
</g>
<g
   id="g16">
</g>
<g
   id="g18">
</g>
<g
   id="g20">
</g>
<g
   id="g22">
</g>
<g
   id="g24">
</g>
<g
   id="g26">
</g>
<g
   id="g28">
</g>
<g
   id="g30">
</g>
<g
   id="g32">
</g>
<g
   id="g34">
</g>
<g
   id="g36">
</g>
<g
   id="g38">
</g>
<g
   id="g40">
</g>
<g
   id="g42">
</g>
<circle
   id="path51"
   cx="238.13162"
   cy="237.76752"
   r="234.06529"
   style="stroke-width:0.77272725" /><circle
   style="fill:#ffffff;stroke-width:0.72528648"
   id="path53"
   cx="237.97836"
   cy="238.29117"
   r="212.64604" /><g
   id="g4215"
   transform="matrix(0.58238822,0,0,0.58238822,84.948957,79.7001)"><g
     id="g4140">
	<g
   id="g4138">
		<path
   id="path4136"
   d="M 483.998,124.519 C 482.113,105.68 468.507,89.936 450.139,85.343 L 421.862,78.274 C 423.448,35.675 388.965,0.022 345.985,0.022 H 166.001 c -42.776,0 -76.685,35.517 -74.91,78.26 L 62.845,85.343 C 44.478,89.936 30.871,105.678 28.992,124.477 -1.609,422.014 0.015,405.829 0.015,406.987 v 59.995 c 0,8.283 6.715,14.999 14.999,14.999 h 75.993 v 14.999 c 0,8.283 6.715,14.999 14.999,14.999 H 406.98 c 8.283,0 14.999,-6.715 14.999,-14.999 v -15 h 74.994 c 8.283,0 14.999,-6.715 14.999,-14.999 v -59.995 c -10e-4,-1.518 2.029,19.706 -27.974,-282.467 z M 354.055,30.725 c 20.653,3.656 36.64,21.233 37.82,42.029 -7.302,0.353 -14.444,2.499 -20.864,6.351 l -71.523,42.564 z m -34.56,-0.706 -17.998,29.997 H 210.49 l -18,-29.997 z M 283.499,90.014 255.994,135.855 228.488,90.014 Z M 157.938,30.736 212.263,121.278 142.021,79.133 C 135.55,75.25 128.374,73.097 121.042,72.752 122.01,52.212 137.199,34.473 157.938,30.736 Z M 91.007,451.983 H 30.012 v -29.997 h 60.995 c 0,10.855 0,19.142 0,29.997 z m 330.97,-59.997 V 195.003 c 0,-8.283 -6.715,-14.999 -14.999,-14.999 -8.284,0 -14.999,6.715 -14.999,14.999 0.002,11.976 0.002,274.167 0.002,286.977 H 121.005 c 0,-11.525 0,-275.258 0,-286.975 0,-8.283 -6.715,-14.999 -14.999,-14.999 -8.283,0 -14.999,6.715 -14.999,14.999 V 391.988 H 31.634 L 58.836,127.504 c 0.628,-6.28 5.164,-11.528 11.285,-13.059 l 41.169,-10.292 c 0.049,-0.012 0.098,-0.024 0.146,-0.037 4.11,-1.028 9.135,-2.871 15.152,0.74 l 84.408,50.645 v 69.501 c 0,8.283 6.715,14.999 14.999,14.999 8.283,0 14.999,-6.715 14.999,-14.999 v -51.503 c 7.546,4.528 9.889,6.499 14.972,6.506 5.036,0.021 7.381,-1.922 15.026,-6.471 v 51.467 c 0,8.283 6.715,14.999 14.999,14.999 8.283,0 14.999,-6.715 14.999,-14.999 v -69.319 l 85.407,-50.827 c 5.98,-3.589 10.962,-1.788 15.152,-0.741 0.05,0.013 0.099,0.025 0.148,0.037 l 41.167,10.292 c 6.122,1.531 10.658,6.778 11.285,13.048 l 26.262,264.495 z m 59.997,59.997 h -59.995 c 0,-10.855 0,-19.142 0,-29.997 h 59.995 z"
   inkscape:connector-curvature="0" />
	</g>
</g><g
     id="g4146">
	<g
   id="g4144">
		<path
   id="path4142"
   d="m 359.4,430.277 -29.997,-59.995 c -3.704,-7.408 -12.713,-10.412 -20.122,-6.707 -7.409,3.705 -10.412,12.714 -6.707,20.123 l 29.997,59.995 c 3.704,7.408 12.712,10.412 20.122,6.707 7.409,-3.704 10.412,-12.714 6.707,-20.123 z"
   inkscape:connector-curvature="0" />
	</g>
</g><g
     id="g4152">
	<g
   id="g4150">
		<path
   id="path4148"
   d="m 202.706,363.574 c -7.405,-3.704 -16.418,-0.702 -20.122,6.707 l -29.997,59.995 c -3.705,7.409 -0.702,16.419 6.707,20.123 7.409,3.704 16.419,0.701 20.122,-6.707 l 29.997,-59.995 c 3.705,-7.409 0.702,-16.419 -6.707,-20.123 z"
   inkscape:connector-curvature="0" />
	</g>
</g><g
     id="g4154">
</g><g
     id="g4156">
</g><g
     id="g4158">
</g><g
     id="g4160">
</g><g
     id="g4162">
</g><g
     id="g4164">
</g><g
     id="g4166">
</g><g
     id="g4168">
</g><g
     id="g4170">
</g><g
     id="g4172">
</g><g
     id="g4174">
</g><g
     id="g4176">
</g><g
     id="g4178">
</g><g
     id="g4180">
</g><g
     id="g4182">
</g></g></svg>